<?xml version='1.0' encoding='utf-8'?>
<!DOCTYPE svg PUBLIC '-//W3C//DTD SVG 1.1//EN' 'http://www.w3.org/Graphics/SVG/1.1/DTD/svg11.dtd'>
<svg version="1.1" xmlns="http://www.w3.org/2000/svg" viewBox="0 0 512 512" xmlns:xlink="http://www.w3.org/1999/xlink" enable-background="new 0 0 512 512">
  <g>
    <g>
      <path d="m461.2,205.5c-16.9-1.2-32.2-6.6-43.4-15.5-0.5-0.4-1.1-0.8-1.7-1.2-58.2-37.4-122.2-56.3-190.3-56.3-54.8,0-111.6,11.7-172.9,35.7v-115.4h69.8v24.7c0,11.3 9.1,20.4 20.4,20.4 11.3,0 20.4-9.1 20.4-20.4v-24.7h187.2v24.7c0,11.3 9.1,20.4 20.4,20.4 11.3,0 20.4-9.1 20.4-20.4v-24.7h69.8v152.7h-0.1zm0,255.7h-408.4v-249c62.3-26.2 119-38.9 172.9-38.9 59.9,0 116.2,16.6 167.4,49.3 18.2,14.2 42.1,22.6 68,23.9v214.7h0.1zm1.9-449.2h-412.2c-21.4,0-38.9,17.5-38.9,38.9v147.9 264.3c0,21.5 17.5,38.9 38.9,38.9h412.2c21.5,0 38.9-17.5 38.9-38.9v-237.6-174.6c5.68434e-14-21.4-17.5-38.9-38.9-38.9z"/>
      <path d="m227.9,375.1h-42.6v-0.5l14-11.7c22-19.6 40.4-39.9 40.4-65.4 0-27.6-18.9-47.6-53.2-47.6-15,0-28.5,3.7-39.2,9.1-6.2,3.1-9,10.5-6.4,17 2.9,7.3 11.3,10.6 18.4,7.2 5.9-2.8 12.7-4.8 19.9-4.8 17.5,0 25,9.8 25,22.2-0.5,17.7-16.6,34.8-49.7,64.4l-14.7,13.3c-3.1,2.8-4.9,6.8-4.9,11 0,8.2 6.7,14.9 14.9,14.9h78.2c8.1,0 14.6-6.5 14.6-14.6-0.1-7.9-6.6-14.5-14.7-14.5z"/>
      <path d="m327.3,307.9v33.6h-34.1v-0.5l20.3-33.2c5.1-9.6 9.1-18.4 14-28.3h0.9c-0.6,9.9-1.1,19.3-1.1,28.4zm38.5,33.6h-4.9v-61.1c0-15.4-12.5-27.9-27.9-27.9-9.7,0-18.6,5-23.7,13.2l-46.5,74.9c-1.8,2.8-2.7,6.1-2.7,9.5 0,9.9 8.1,18 18,18h49.3v19.4c0,9.3 7.5,16.8 16.8,16.8s16.8-7.5 16.8-16.8v-19.4h4.9c7.4,0 13.3-6 13.3-13.3-0.1-7.3-6-13.3-13.4-13.3z"/>
    </g>
  </g>
</svg>
