<?xml version='1.0' encoding='utf-8'?>
<!DOCTYPE svg PUBLIC '-//W3C//DTD SVG 1.1//EN' 'http://www.w3.org/Graphics/SVG/1.1/DTD/svg11.dtd'>
<svg version="1.1" xmlns="http://www.w3.org/2000/svg" viewBox="0 0 512 512" xmlns:xlink="http://www.w3.org/1999/xlink" enable-background="new 0 0 512 512">
  <g>
    <g>
      <g>
        <path d="M256,501C120.9,501,11,391.1,11,256S120.9,11,256,11s245,109.9,245,245S391.1,501,256,501z M256,54.6     C145,54.6,54.6,145,54.6,256S145,457.4,256,457.4S457.4,367,457.4,256S367,54.6,256,54.6z"/>
      </g>
      <g>
        <g>
          <path d="m163,344.5c-12,0-21.8-9.8-21.8-21.8v-133.3c0-12 9.8-21.8 21.8-21.8 12,0 21.8,9.8 21.8,21.8v133.3c0,12-9.7,21.8-21.8,21.8z"/>
        </g>
        <g>
          <path d="m256,344.5c-12,0-21.8-9.8-21.8-21.8v-102.3c0-12 9.8-21.8 21.8-21.8s21.8,9.8 21.8,21.8v102.3c0,12-9.8,21.8-21.8,21.8z"/>
        </g>
        <g>
          <path d="m349,344.5c-12,0-21.8-9.8-21.8-21.8v-51.1c0-12 9.8-21.8 21.8-21.8 12,0 21.8,9.8 21.8,21.8v51.1c0,12-9.8,21.8-21.8,21.8z"/>
        </g>
      </g>
    </g>
  </g>
</svg>
